<mxfile host="app.diagrams.net" modified="2023-12-29T12:57:38.979Z" agent="Mozilla/5.0 (Windows NT 10.0; Win64; x64) AppleWebKit/537.36 (KHTML, like Gecko) Chrome/120.0.0.0 Safari/537.36" etag="Zsiz2g-bl0dIiL-odeYp" version="22.1.16" type="github">
  <diagram name="Page-1" id="xO1SqvbakYBglwtbec5s">
    <mxGraphModel dx="1313" dy="706" grid="0" gridSize="10" guides="1" tooltips="1" connect="1" arrows="1" fold="1" page="1" pageScale="1" pageWidth="1400" pageHeight="1600" math="0" shadow="0">
      <root>
        <mxCell id="0" />
        <mxCell id="1" parent="0" />
        <mxCell id="FOO9OkpaDTlz-Kc7D4Tt-22" value="" style="edgeStyle=orthogonalEdgeStyle;rounded=0;orthogonalLoop=1;jettySize=auto;html=1;" edge="1" parent="1" source="FOO9OkpaDTlz-Kc7D4Tt-8" target="FOO9OkpaDTlz-Kc7D4Tt-21">
          <mxGeometry relative="1" as="geometry" />
        </mxCell>
        <mxCell id="FOO9OkpaDTlz-Kc7D4Tt-36" value="&lt;font style=&quot;font-size: 15px;&quot;&gt;GPIOs&lt;/font&gt;" style="edgeLabel;html=1;align=center;verticalAlign=middle;resizable=0;points=[];" vertex="1" connectable="0" parent="FOO9OkpaDTlz-Kc7D4Tt-22">
          <mxGeometry x="-0.2" relative="1" as="geometry">
            <mxPoint x="-1" as="offset" />
          </mxGeometry>
        </mxCell>
        <mxCell id="FOO9OkpaDTlz-Kc7D4Tt-24" value="" style="edgeStyle=orthogonalEdgeStyle;rounded=0;orthogonalLoop=1;jettySize=auto;html=1;" edge="1" parent="1" source="FOO9OkpaDTlz-Kc7D4Tt-8" target="FOO9OkpaDTlz-Kc7D4Tt-23">
          <mxGeometry relative="1" as="geometry" />
        </mxCell>
        <mxCell id="FOO9OkpaDTlz-Kc7D4Tt-35" value="SPI" style="edgeLabel;html=1;align=center;verticalAlign=middle;resizable=0;points=[];fontSize=15;" vertex="1" connectable="0" parent="FOO9OkpaDTlz-Kc7D4Tt-24">
          <mxGeometry x="0.0071" y="1" relative="1" as="geometry">
            <mxPoint as="offset" />
          </mxGeometry>
        </mxCell>
        <mxCell id="FOO9OkpaDTlz-Kc7D4Tt-8" value="ESP32" style="rounded=1;whiteSpace=wrap;html=1;fillColor=#1ba1e2;fontColor=#ffffff;strokeColor=#006EAF;" vertex="1" parent="1">
          <mxGeometry x="386" y="442" width="120" height="60" as="geometry" />
        </mxCell>
        <mxCell id="FOO9OkpaDTlz-Kc7D4Tt-12" value="" style="edgeStyle=orthogonalEdgeStyle;rounded=0;orthogonalLoop=1;jettySize=auto;html=1;" edge="1" parent="1" source="FOO9OkpaDTlz-Kc7D4Tt-10" target="FOO9OkpaDTlz-Kc7D4Tt-11">
          <mxGeometry relative="1" as="geometry" />
        </mxCell>
        <mxCell id="FOO9OkpaDTlz-Kc7D4Tt-10" value="Battery" style="rounded=1;whiteSpace=wrap;html=1;fillColor=#f8cecc;strokeColor=#b85450;" vertex="1" parent="1">
          <mxGeometry x="186" y="239" width="120" height="60" as="geometry" />
        </mxCell>
        <mxCell id="FOO9OkpaDTlz-Kc7D4Tt-20" style="edgeStyle=orthogonalEdgeStyle;rounded=0;orthogonalLoop=1;jettySize=auto;html=1;exitX=0.25;exitY=1;exitDx=0;exitDy=0;entryX=0.25;entryY=0;entryDx=0;entryDy=0;" edge="1" parent="1">
          <mxGeometry relative="1" as="geometry">
            <mxPoint x="445.29000000000025" y="299" as="sourcePoint" />
            <mxPoint x="445.29000000000025" y="442" as="targetPoint" />
          </mxGeometry>
        </mxCell>
        <mxCell id="FOO9OkpaDTlz-Kc7D4Tt-11" value="LDO/Regulator" style="whiteSpace=wrap;html=1;rounded=1;fillColor=#f8cecc;strokeColor=#b85450;" vertex="1" parent="1">
          <mxGeometry x="386" y="239" width="120" height="60" as="geometry" />
        </mxCell>
        <mxCell id="FOO9OkpaDTlz-Kc7D4Tt-15" style="edgeStyle=orthogonalEdgeStyle;rounded=0;orthogonalLoop=1;jettySize=auto;html=1;" edge="1" parent="1" source="FOO9OkpaDTlz-Kc7D4Tt-13" target="FOO9OkpaDTlz-Kc7D4Tt-10">
          <mxGeometry relative="1" as="geometry" />
        </mxCell>
        <mxCell id="FOO9OkpaDTlz-Kc7D4Tt-13" value="Battery Charging" style="whiteSpace=wrap;html=1;rounded=1;fillColor=#f8cecc;strokeColor=#b85450;" vertex="1" parent="1">
          <mxGeometry x="186" y="99" width="120" height="60" as="geometry" />
        </mxCell>
        <mxCell id="FOO9OkpaDTlz-Kc7D4Tt-21" value="5x RGB Indicator" style="whiteSpace=wrap;html=1;rounded=1;fillColor=#fff2cc;gradientColor=#ffd966;strokeColor=#d6b656;" vertex="1" parent="1">
          <mxGeometry x="186" y="442" width="120" height="60" as="geometry" />
        </mxCell>
        <mxCell id="FOO9OkpaDTlz-Kc7D4Tt-23" value="LCD Display" style="whiteSpace=wrap;html=1;rounded=1;fillColor=#fff2cc;gradientColor=#ffd966;strokeColor=#d6b656;" vertex="1" parent="1">
          <mxGeometry x="386" y="582" width="120" height="60" as="geometry" />
        </mxCell>
        <mxCell id="FOO9OkpaDTlz-Kc7D4Tt-27" value="" style="shape=flexArrow;endArrow=classic;html=1;rounded=0;exitX=1;exitY=0.5;exitDx=0;exitDy=0;entryX=0.001;entryY=0.354;entryDx=0;entryDy=0;entryPerimeter=0;fillColor=#b1ddf0;strokeColor=#10739e;" edge="1" parent="1" source="FOO9OkpaDTlz-Kc7D4Tt-11" target="FOO9OkpaDTlz-Kc7D4Tt-29">
          <mxGeometry width="50" height="50" relative="1" as="geometry">
            <mxPoint x="560" y="419" as="sourcePoint" />
            <mxPoint x="590" y="269" as="targetPoint" />
          </mxGeometry>
        </mxCell>
        <mxCell id="FOO9OkpaDTlz-Kc7D4Tt-28" value="Power Bus" style="edgeLabel;html=1;align=center;verticalAlign=middle;resizable=0;points=[];fontSize=18;" vertex="1" connectable="0" parent="FOO9OkpaDTlz-Kc7D4Tt-27">
          <mxGeometry x="-0.28" relative="1" as="geometry">
            <mxPoint as="offset" />
          </mxGeometry>
        </mxCell>
        <mxCell id="FOO9OkpaDTlz-Kc7D4Tt-33" value="" style="shape=flexArrow;endArrow=classic;startArrow=classic;html=1;rounded=0;exitX=1;exitY=0.5;exitDx=0;exitDy=0;entryX=0.005;entryY=0.688;entryDx=0;entryDy=0;entryPerimeter=0;fillColor=#b1ddf0;strokeColor=#10739e;" edge="1" parent="1" source="FOO9OkpaDTlz-Kc7D4Tt-8" target="FOO9OkpaDTlz-Kc7D4Tt-29">
          <mxGeometry width="100" height="100" relative="1" as="geometry">
            <mxPoint x="530" y="529" as="sourcePoint" />
            <mxPoint x="750" y="479" as="targetPoint" />
          </mxGeometry>
        </mxCell>
        <mxCell id="FOO9OkpaDTlz-Kc7D4Tt-34" value="UART/I2C" style="edgeLabel;html=1;align=center;verticalAlign=middle;resizable=0;points=[];fontSize=20;" vertex="1" connectable="0" parent="FOO9OkpaDTlz-Kc7D4Tt-33">
          <mxGeometry x="0.0908" y="2" relative="1" as="geometry">
            <mxPoint as="offset" />
          </mxGeometry>
        </mxCell>
        <mxCell id="FOO9OkpaDTlz-Kc7D4Tt-37" value="" style="group" vertex="1" connectable="0" parent="1">
          <mxGeometry x="740" y="59" width="200" height="600" as="geometry" />
        </mxCell>
        <mxCell id="FOO9OkpaDTlz-Kc7D4Tt-29" value="" style="rounded=1;whiteSpace=wrap;html=1;fillColor=#d5e8d4;strokeColor=#82b366;" vertex="1" parent="FOO9OkpaDTlz-Kc7D4Tt-37">
          <mxGeometry width="200" height="600" as="geometry" />
        </mxCell>
        <mxCell id="FOO9OkpaDTlz-Kc7D4Tt-1" value="Light Sensor" style="rounded=1;whiteSpace=wrap;html=1;fillColor=#dae8fc;strokeColor=#6c8ebf;" vertex="1" parent="FOO9OkpaDTlz-Kc7D4Tt-37">
          <mxGeometry x="40" y="30" width="120" height="60" as="geometry" />
        </mxCell>
        <mxCell id="FOO9OkpaDTlz-Kc7D4Tt-2" value="Temp &amp;amp; Humidity" style="rounded=1;whiteSpace=wrap;html=1;fillColor=#dae8fc;strokeColor=#6c8ebf;" vertex="1" parent="FOO9OkpaDTlz-Kc7D4Tt-37">
          <mxGeometry x="40" y="110" width="120" height="60" as="geometry" />
        </mxCell>
        <mxCell id="FOO9OkpaDTlz-Kc7D4Tt-3" value="CO2 Sensor" style="rounded=1;whiteSpace=wrap;html=1;fillColor=#dae8fc;strokeColor=#6c8ebf;" vertex="1" parent="FOO9OkpaDTlz-Kc7D4Tt-37">
          <mxGeometry x="40" y="190" width="120" height="60" as="geometry" />
        </mxCell>
        <mxCell id="FOO9OkpaDTlz-Kc7D4Tt-4" value="Ozone Sensor" style="rounded=1;whiteSpace=wrap;html=1;fillColor=#dae8fc;strokeColor=#6c8ebf;" vertex="1" parent="FOO9OkpaDTlz-Kc7D4Tt-37">
          <mxGeometry x="40" y="270" width="120" height="60" as="geometry" />
        </mxCell>
        <mxCell id="FOO9OkpaDTlz-Kc7D4Tt-5" value="PM2.5 Sensor" style="rounded=1;whiteSpace=wrap;html=1;fillColor=#dae8fc;strokeColor=#6c8ebf;" vertex="1" parent="FOO9OkpaDTlz-Kc7D4Tt-37">
          <mxGeometry x="40" y="350" width="120" height="60" as="geometry" />
        </mxCell>
        <mxCell id="FOO9OkpaDTlz-Kc7D4Tt-6" value="TVOC Sensor" style="rounded=1;whiteSpace=wrap;html=1;fillColor=#dae8fc;strokeColor=#6c8ebf;" vertex="1" parent="FOO9OkpaDTlz-Kc7D4Tt-37">
          <mxGeometry x="40" y="425" width="120" height="60" as="geometry" />
        </mxCell>
        <mxCell id="FOO9OkpaDTlz-Kc7D4Tt-7" value="Barometric sensor" style="rounded=1;whiteSpace=wrap;html=1;fillColor=#dae8fc;strokeColor=#6c8ebf;" vertex="1" parent="FOO9OkpaDTlz-Kc7D4Tt-37">
          <mxGeometry x="40" y="500" width="120" height="60" as="geometry" />
        </mxCell>
      </root>
    </mxGraphModel>
  </diagram>
</mxfile>
